<svg width="1851" height="1792" xmlns="http://www.w3.org/2000/svg" xmlns:xlink="http://www.w3.org/1999/xlink" xml:space="preserve" overflow="hidden"><g transform="translate(-1288 -365)"><path d="M1304 1223.54 1726.27 379 2700.73 379 3123 1223.54 2700.73 2068.07 1726.27 2068.07Z" stroke="#000000" stroke-width="27.5" stroke-miterlimit="8" fill="#FFFFFF" fill-rule="evenodd"/><g><g><g><path d="M783.549 309.775C778.8 296.018 768.489 284.889 755.134 279.105 705.88 256.282 601.78 285.6 540.438 306.167 553.246 288.843 563.233 269.601 570.026 249.155 583.287 209.283 606.11 207.389 607.012 207.389 616.976 207.389 625.053 199.312 625.053 189.347 625.053 179.383 616.976 171.306 607.012 171.306 605.027 171.306 557.668 172.027 535.747 237.789 530.469 253.484 522.966 268.339 513.466 281.901 510.416 272.485 505.05 263.986 497.86 257.184 503.936 251.18 507.486 243.079 507.783 234.542 507.783 219.567 495.965 206.306 478.014 198.458L501.829 150.738C506.199 144.676 504.827 136.219 498.765 131.848 492.703 127.479 484.246 128.851 479.876 134.913 479.129 135.948 478.533 137.086 478.104 138.289L451.944 190.61C441.416 189.05 430.718 189.05 420.19 190.61L394.03 138.289C390.361 131.779 382.11 129.474 375.599 133.143 369.539 136.557 367.055 144.009 369.854 150.377L393.218 198.458C375.176 206.667 363.449 219.928 363.449 234.542 363.804 244.286 368.26 253.428 375.718 259.71 370.721 264.961 366.718 271.073 363.9 277.751 355.716 265.369 349.195 251.963 344.506 237.879 322.585 172.117 275.226 171.396 273.241 171.396 263.277 171.396 255.199 179.473 255.199 189.437 255.199 199.402 263.277 207.479 273.241 207.479 274.233 207.479 297.507 209.374 310.768 249.246 317.955 271.304 328.779 292.007 342.792 310.497 284.788 289.93 168.69 254.658 115.918 279.105 102.562 284.889 92.2515 296.018 87.5021 309.775 72.6177 354.428 95.3502 416.582 140.274 454.109 168.314 478.001 204.018 491.002 240.856 490.733 269.872 490.31 298.468 483.73 324.75 471.429 324.75 474.406 324.209 477.292 324.028 480.449L324.028 480.449C324.028 486.764 323.487 493.169 323.487 499.574 323.487 504.445 323.487 509.406 324.209 514.278L274.775 514.278 210.817 578.235C203.822 585.272 203.822 596.637 210.817 603.674 214.207 607.084 218.818 609 223.626 608.996 228.404 608.977 232.978 607.062 236.346 603.674L289.749 550.271 329.802 550.271C330.433 553.338 330.974 555.864 330.974 556.134 332.057 560.555 333.23 565.155 334.492 569.485L335.304 572.282C336.387 576.161 337.65 580.04 339.003 583.919 326.075 621.814 302.567 655.215 271.256 680.171 263.285 686.149 261.67 697.457 267.648 705.429 273.626 713.401 284.935 715.016 292.906 709.037 320.144 687.992 342.283 661.073 357.676 630.286 361.735 639.306 366.065 647.515 370.395 655.454L370.395 655.454C372.2 658.701 374.004 661.708 375.808 664.475L376.8 666.188C378.243 668.714 379.777 671.24 381.311 673.766L382.664 675.931 386.994 682.787 388.347 684.862 393.669 692.89 395.563 695.506 398.901 700.287 401.517 703.805 404.043 707.143 406.749 710.661 409.005 713.458 411.621 716.705 413.786 719.231 416.311 722.027C417.123 723.02 418.025 723.922 418.837 724.824 419.649 725.726 420.912 727.079 421.995 728.071L424.52 730.597 426.054 731.95 428.309 733.935 429.662 735.017 431.827 736.461 432.91 737.182 434.894 738.265 435.616 738.265C436.364 738.376 437.123 738.376 437.871 738.265L437.871 738.265C438.501 738.332 439.136 738.332 439.766 738.265L440.848 737.724C441.358 737.507 441.842 737.235 442.291 736.912L443.915 735.919 445.268 734.927 447.343 733.303C447.651 732.951 447.983 732.619 448.335 732.311 453.484 727.684 458.278 722.679 462.678 717.337L462.678 717.337 466.557 712.646 467.369 711.563 471.248 706.602 472.331 705.158 476.21 699.926 477.202 698.483 483.336 689.462 487.125 685.583 489.019 682.516C490.282 680.592 491.545 678.607 492.808 676.562L494.432 674.037 498.942 666.549 499.754 665.106C505.978 654.461 512.022 643.005 517.796 631.007 533.148 661.437 555.127 688.04 582.114 708.857 590.086 714.835 601.394 713.22 607.373 705.249 613.351 697.277 611.736 685.968 603.764 679.99 572.811 655.375 549.502 622.461 536.559 585.091 540.411 573.677 543.603 562.051 546.121 550.271L585.091 550.271 638.495 603.584C641.863 606.972 646.436 608.886 651.214 608.906 656.022 608.91 660.633 606.994 664.023 603.584 671.018 596.547 671.018 585.182 664.023 578.145L600.066 514.187 551.443 514.187C551.443 509.316 551.985 504.355 551.985 499.483 551.985 490.463 551.985 482.073 551.083 473.594 576.032 484.699 602.979 490.622 630.286 491.004 667.062 491.229 702.695 478.231 730.687 454.379 775.792 416.582 798.434 354.428 783.549 309.775ZM340.807 392.587C339.273 396.917 337.92 401.607 336.567 405.937 336.567 406.93 335.936 408.012 335.665 409.095 334.402 413.666 333.23 418.356 332.147 423.167 332.147 424.25 332.147 425.242 331.425 426.324L331.425 426.324 323.307 432.098C241.668 475.578 187.994 447.433 163.548 426.685 125.931 395.112 112.851 348.204 121.871 321.051 123.436 316.884 126.725 313.595 130.892 312.031 140.946 308.144 151.698 306.393 162.465 306.889 215.237 306.889 302.378 333.049 357.405 354.699L353.707 361.284 352.895 362.908C351.001 366.787 349.106 370.756 347.392 374.906L346.31 377.161C344.626 381.311 343.002 385.55 341.438 389.88 341.438 390.692 341.078 391.594 340.807 392.587ZM493.079 639.667C474.974 643.394 456.536 645.267 438.052 645.26 419.287 645.297 400.572 643.362 382.213 639.487 374.853 625.617 368.288 611.342 362.547 596.728 386.857 605.012 412.369 609.218 438.052 609.177 463.522 609.241 488.825 605.064 512.924 596.818 507.124 611.464 500.498 625.771 493.079 639.667ZM531.688 529.252C471.172 551.606 404.661 551.606 344.145 529.252 342.679 519.396 341.926 509.448 341.89 499.483 341.89 496.056 341.89 492.628 341.89 489.29 402.895 516.776 472.757 516.776 533.763 489.29 533.763 492.628 533.763 495.965 533.763 499.393 533.787 509.383 533.093 519.362 531.688 529.252ZM707.594 426.776C682.967 447.523 629.564 475.668 547.835 432.188L545.219 430.294C540.084 403.197 530.642 377.097 517.255 352.985 586.354 325.923 701.009 293.809 739.979 311.85 744.146 313.414 747.435 316.703 749 320.871 758.381 348.294 745.211 395.203 707.594 426.776Z" transform="matrix(1 0 0 1.00116 1488 468)"/></g></g></g><text font-family="Aptos,Aptos_MSFontService,sans-serif" font-weight="700" font-size="165" transform="matrix(1 0 0 1 1742.37 1813)">POLLINATOR</text><text font-family="Aptos,Aptos_MSFontService,sans-serif" font-weight="700" font-size="165" transform="matrix(1 0 0 1 2064.48 2011)">HEX</text><path d="M2491 504.5 2553.75 379 2699.25 379 2762 504.5 2699.25 630 2553.75 630Z" stroke="#000000" stroke-width="13.75" stroke-miterlimit="8" fill="#747474" fill-rule="evenodd"/><path d="M2496 756 2559 630 2703 630 2766 756 2703 882 2559 882Z" stroke="#000000" stroke-width="13.75" stroke-miterlimit="8" fill="#FFC000" fill-rule="evenodd"/><path d="M2288 630 2351 504 2496 504 2559 630 2496 756 2351 756Z" stroke="#000000" stroke-width="13.75" stroke-miterlimit="8" fill="#13501B" fill-rule="evenodd"/><path d="M2496 1007.5 2558.75 882 2703.25 882 2766 1007.5 2703.25 1133 2558.75 1133Z" stroke="#000000" stroke-width="13.75" stroke-miterlimit="8" fill="#13501B" fill-rule="evenodd"/><path d="M2704 1133 2767 1007 2912 1007 2975 1133 2912 1259 2767 1259Z" stroke="#000000" stroke-width="13.75" stroke-miterlimit="8" fill="#8ED973" fill-rule="evenodd"/><path d="M2496 1259 2559 1133 2703 1133 2766 1259 2703 1385 2559 1385Z" stroke="#000000" stroke-width="13.75" stroke-miterlimit="8" fill="#8ED973" fill-rule="evenodd"/><path d="M2292 1133 2355 1007 2499 1007 2562 1133 2499 1259 2355 1259Z" stroke="#000000" stroke-width="13.75" stroke-miterlimit="8" fill="#215F9A" fill-rule="evenodd"/><path d="M2287 1387.5 2349.75 1262 2495.25 1262 2558 1387.5 2495.25 1513 2349.75 1513Z" stroke="#000000" stroke-width="13.75" stroke-miterlimit="8" fill="#FFC000" fill-rule="evenodd"/><path d="M2701 1387.5 2763.75 1262 2908.25 1262 2971 1387.5 2908.25 1513 2763.75 1513Z" stroke="#000000" stroke-width="13.75" stroke-miterlimit="8" fill="#747474" fill-rule="evenodd"/><path d="M2078 501.5 2140.75 376 2286.25 376 2349 501.5 2286.25 627 2140.75 627Z" stroke="#000000" stroke-width="13.75" stroke-miterlimit="8" fill="#215F9A" fill-rule="evenodd"/><path d="M2078 1513 2141 1387 2286 1387 2349 1513 2286 1639 2141 1639Z" stroke="#000000" stroke-width="13.75" stroke-miterlimit="8" fill="#747474" fill-rule="evenodd"/><path d="M1871 1387.5 1933.75 1262 2079.25 1262 2142 1387.5 2079.25 1513 1933.75 1513Z" stroke="#000000" stroke-width="13.75" stroke-miterlimit="8" fill="#215F9A" fill-rule="evenodd"/><path d="M1662 1513 1725 1387 1870 1387 1933 1513 1870 1639 1725 1639Z" stroke="#000000" stroke-width="13.75" stroke-miterlimit="8" fill="#FFC000" fill-rule="evenodd"/></g></svg>